<svg xmlns="http://www.w3.org/2000/svg" version="1.1" xmlns:xlink="http://www.w3.org/1999/xlink" xmlns:svgjs="http://svgjs.dev/svgjs" width="1500" height="530" viewBox="0 0 1500 530"><g transform="matrix(1,0,0,1,-0.9090909090909918,-0.7533466912145173)"><svg viewBox="0 0 396 140" data-background-color="#110f10" preserveAspectRatio="xMidYMid meet" height="530" width="1500" xmlns="http://www.w3.org/2000/svg" xmlns:xlink="http://www.w3.org/1999/xlink"><g id="tight-bounds" transform="matrix(1,0,0,1,0.2400000000000091,0.19899723918874201)"><svg viewBox="0 0 395.52 139.60200552162252" height="139.60200552162252" width="395.52"><g><svg viewBox="0 0 692.5222252070434 244.43135999999998" height="139.60200552162252" width="395.52"><g transform="matrix(1,0,0,1,0,77.67844181649676)"><svg viewBox="0 0 395.52 89.07447636700648" height="89.07447636700648" width="395.52"><g id="textblocktransform"><svg viewBox="0 0 395.52 89.07447636700648" height="89.07447636700648" width="395.52" id="textblock"><g><svg viewBox="0 0 395.52 89.07447636700648" height="89.07447636700648" width="395.52"><g transform="matrix(1,0,0,1,0,0)"><svg width="395.52" viewBox="1.88 -33.33 149.84 33.75" height="89.07447636700648" data-palette-color="#cef196"><path d="M12.92 0.42L12.92 0.42Q9.86 0.42 7.36-1.04 4.86-2.5 3.37-4.97 1.88-7.43 1.88-10.42L1.88-10.42Q1.88-13.4 3.37-15.87 4.86-18.33 7.36-19.79 9.86-21.25 12.92-21.25L12.92-21.25Q15.17-21.25 17.15-20.45 19.13-19.65 20.63-18.33L20.63-18.33 19.48-13.61Q18.61-15.35 16.86-16.53 15.1-17.71 12.88-17.71L12.88-17.71Q10.87-17.71 9.22-16.72 7.57-15.73 6.6-14.08 5.63-12.43 5.63-10.42L5.63-10.42Q5.63-8.44 6.6-6.77 7.57-5.1 9.22-4.11 10.87-3.13 12.88-3.13L12.88-3.13Q15.1-3.13 16.86-4.27 18.61-5.42 19.48-7.22L19.48-7.22 20.63-2.5Q19.13-1.18 17.15-0.38 15.17 0.42 12.92 0.42ZM28.96 0L25.21 0 25.21-33.33 28.96-33.33 28.96-17.88Q30.14-19.51 31.87-20.38 33.61-21.25 35.59-21.25L35.59-21.25Q37.81-21.25 39.7-20.16 41.59-19.06 42.78-17 43.96-14.93 43.96-11.98L43.96-11.98 43.96 0 40.21 0 40.21-11.46Q40.21-13.92 38.73-15.82 37.25-17.71 34.58-17.71L34.58-17.71Q32.39-17.71 30.67-16.13 28.96-14.55 28.96-11.56L28.96-11.56 28.96 0ZM59.13 0.28L59.13 0.28Q56.28 0.28 53.92-1.16 51.56-2.6 50.15-5.03 48.75-7.47 48.75-10.42L48.75-10.42Q48.75-13.37 50.15-15.8 51.56-18.23 53.92-19.67 56.28-21.11 59.13-21.11L59.13-21.11Q61.28-21.11 63.17-20.31 65.06-19.51 66.45-18.09L66.45-18.09 66.45-20.83 69.93-20.83 69.93 0 66.45 0 66.45-2.74Q65.06-1.35 63.17-0.54 61.28 0.28 59.13 0.28ZM59.61-3.13L59.61-3.13Q61.59-3.13 63.21-4.11 64.82-5.1 65.78-6.75 66.73-8.4 66.73-10.42L66.73-10.42Q66.73-12.43 65.78-14.08 64.82-15.73 63.21-16.72 61.59-17.71 59.61-17.71L59.61-17.71Q57.63-17.71 56.02-16.72 54.4-15.73 53.45-14.08 52.5-12.43 52.5-10.42L52.5-10.42Q52.5-8.4 53.45-6.75 54.4-5.1 56.02-4.11 57.63-3.13 59.61-3.13ZM82.77 0L79.02 0 79.02-17.71 74.3-17.71 74.3-20.83 79.12-20.83 79.12-27.78 82.67-27.78 82.67-20.83 87.84-20.83 87.84-17.71 82.77-17.71 82.77 0ZM101.14 0.28L101.14 0.28Q98.29 0.28 95.93-1.16 93.57-2.6 92.16-5.03 90.75-7.47 90.75-10.42L90.75-10.42Q90.75-13.37 92.16-15.8 93.57-18.23 95.93-19.67 98.29-21.11 101.14-21.11L101.14-21.11Q103.29-21.11 105.18-20.31 107.07-19.51 108.46-18.09L108.46-18.09 108.46-20.83 111.93-20.83 111.93 0 108.46 0 108.46-2.74Q107.07-1.35 105.18-0.54 103.29 0.28 101.14 0.28ZM101.62-3.13L101.62-3.13Q103.6-3.13 105.22-4.11 106.83-5.1 107.79-6.75 108.74-8.4 108.74-10.42L108.74-10.42Q108.74-12.43 107.79-14.08 106.83-15.73 105.22-16.72 103.6-17.71 101.62-17.71L101.62-17.71Q99.64-17.71 98.03-16.72 96.41-15.73 95.46-14.08 94.5-12.43 94.5-10.42L94.5-10.42Q94.5-8.4 95.46-6.75 96.41-5.1 98.03-4.11 99.64-3.13 101.62-3.13ZM122.35 0L118.6 0 118.6-33.33 122.35-33.33 122.35 0ZM132.76 0L129.01 0 129.01-20.83 132.76-20.83 132.76 0ZM130.89-24.58L130.89-24.58Q129.85-24.58 129.12-25.31 128.39-26.04 128.39-27.08L128.39-27.08Q128.39-28.16 129.12-28.87 129.85-29.58 130.89-29.58L130.89-29.58Q131.96-29.58 132.68-28.87 133.39-28.16 133.39-27.08L133.39-27.08Q133.39-26.04 132.68-25.31 131.96-24.58 130.89-24.58ZM144.81 0.42L144.81 0.42Q143.21 0.42 141.39-0.19 139.57-0.8 138.25-2.22L138.25-2.22 139.29-6.32Q140.26-4.69 141.79-3.73 143.32-2.78 145.05-2.78L145.05-2.78Q146.72-2.78 147.55-3.59 148.39-4.41 148.39-5.59L148.39-5.59Q148.39-6.94 147.5-7.57 146.61-8.19 145.92-8.44L145.92-8.44 143.11-9.51Q142.34-9.83 141.27-10.43 140.19-11.04 139.39-12.19 138.59-13.33 138.59-15.17L138.59-15.17Q138.59-16.84 139.39-18.23 140.19-19.62 141.65-20.43 143.11-21.25 145.09-21.25L145.09-21.25Q146.65-21.25 148.35-20.69 150.05-20.14 151.23-18.82L151.23-18.82 150.19-14.72Q149.36-16.25 147.93-17.15 146.51-18.06 144.98-18.06L144.98-18.06Q143.56-18.06 142.74-17.26 141.93-16.46 141.93-15.42L141.93-15.42Q141.93-14.58 142.48-13.92 143.04-13.26 144.15-12.85L144.15-12.85 146.96-11.77Q147.73-11.49 148.85-10.87 149.98-10.24 150.85-9.06 151.72-7.88 151.72-5.87L151.72-5.87Q151.72-3.06 149.76-1.32 147.8 0.42 144.81 0.42Z" opacity="1" transform="matrix(1,0,0,1,0,0)" fill="#cef196" class="wordmark-text-0" data-fill-palette-color="primary" id="text-0"></path></svg></g></svg></g></svg></g></svg></g><g transform="matrix(1,0,0,1,448.0908652070435,0)"><svg viewBox="0 0 244.43135999999998 244.43135999999998" height="244.43135999999998" width="244.43135999999998"><g><svg viewBox="0 0 244.43135999999998 244.43135999999998" height="244.43135999999998" width="244.43135999999998"><g transform="matrix(1,0,0,1,64.60265593644992,68.33894210625556)"><svg viewBox="0 0 115.22604812710014 107.75347578748888" height="107.75347578748888" width="115.22604812710014"><g><svg xmlns="http://www.w3.org/2000/svg" xmlns:xlink="http://www.w3.org/1999/xlink" version="1.1" x="0" y="0" viewBox="14.15 14.898999948678895 75.071 70.20253937651168" enable-background="new 0 0 100 100" xml:space="preserve" height="107.75347578748888" width="115.22604812710014" class="icon-dxe-0" data-fill-palette-color="accent" id="dxe-0"><path d="M89.221 47.531C89.221 65.55 72.403 80.143 51.686 80.143 46.762 80.143 42.089 79.324 37.774 77.827 31.759 81.119 26.405 83.364 19.234 84.771 17.091 85.21 16.238 85.167 16.055 84.902 15.843 84.59 16.547 83.978 17.17 83.476 24.111 78.055 25.271 75.218 26.95 72.039 19.1 66.095 14.15 57.311 14.15 47.531 14.15 29.511 30.942 14.899 51.686 14.899 72.402 14.898 89.221 29.511 89.221 47.531" fill="#f5f1f0" data-fill-palette-color="accent"></path></svg></g></svg></g><g id="text-0"><path d="M26.934 89.026v0c-0.524 1.558-1.371 2.848-2.539 3.869-1.177 1.026-2.519 1.708-4.026 2.047-1.514 0.337-3.033 0.248-4.56-0.266v0c-1.52-0.511-2.781-1.359-3.782-2.541-1.002-1.183-1.659-2.538-1.97-4.064-0.32-1.522-0.217-3.062 0.307-4.621v0c0.387-1.149 0.954-2.16 1.702-3.031 0.748-0.871 1.586-1.577 2.515-2.118v0l3.314 2.097c-1.029 0.144-1.998 0.561-2.905 1.25-0.901 0.692-1.543 1.606-1.925 2.743v0c-0.344 1.022-0.405 2.039-0.185 3.052 0.221 1.013 0.67 1.907 1.348 2.681 0.675 0.782 1.524 1.344 2.545 1.689v0c1.009 0.339 2.022 0.403 3.039 0.19 1.015-0.206 1.916-0.645 2.704-1.318 0.788-0.673 1.354-1.52 1.697-2.542v0c0.382-1.137 0.434-2.25 0.154-3.339-0.28-1.089-0.809-2.01-1.587-2.763v0l3.907 0.334c0.419 0.994 0.663 2.064 0.733 3.211 0.063 1.144-0.099 2.291-0.486 3.44z" fill="#f5f1f0" data-fill-palette-color="accent"></path><path d="M43.115 59.949l-1.952 2.32-20.58-17.308 1.952-2.321 9.536 8.021c-0.263-1.048-0.273-2.078-0.03-3.089 0.242-1.02 0.705-1.938 1.39-2.752v0c0.768-0.913 1.708-1.57 2.821-1.972 1.103-0.401 2.284-0.486 3.542-0.256 1.258 0.231 2.496 0.858 3.713 1.881v0l7.394 6.219-1.945 2.312-7.077-5.952c-1.016-0.854-2.169-1.305-3.459-1.351-1.29-0.046-2.397 0.48-3.321 1.578v0c-0.759 0.902-1.111 1.98-1.055 3.233 0.056 1.253 0.699 2.397 1.932 3.433v0z" fill="#f5f1f0" data-fill-palette-color="accent"></path><path d="M77.922 32.725v0c-1.373 0.689-2.799 0.971-4.279 0.846-1.486-0.122-2.859-0.597-4.119-1.427-1.26-0.83-2.247-1.956-2.96-3.377v0c-0.71-1.415-1.021-2.876-0.932-4.383 0.088-1.507 0.528-2.892 1.319-4.155 0.782-1.266 1.859-2.244 3.232-2.932v0c1.03-0.517 2.099-0.812 3.207-0.886 1.103-0.071 2.16 0.07 3.173 0.421v0l-0.992-1.978 2.502-1.255 7.535 15.021-2.502 1.255-0.992-1.978c-0.333 1.004-0.856 1.929-1.569 2.777-0.719 0.851-1.593 1.534-2.623 2.051zM77.032 30.096v0c0.951-0.477 1.696-1.149 2.235-2.014 0.538-0.865 0.838-1.807 0.9-2.826 0.065-1.027-0.146-2.026-0.632-2.996v0c-0.483-0.964-1.156-1.726-2.018-2.288-0.856-0.565-1.792-0.891-2.808-0.977-1.015-0.086-1.999 0.11-2.951 0.586v0c-0.951 0.477-1.696 1.149-2.234 2.014-0.532 0.862-0.831 1.807-0.896 2.835-0.059 1.024 0.153 2.018 0.637 2.982v0c0.486 0.97 1.158 1.737 2.014 2.302 0.859 0.556 1.794 0.879 2.803 0.968 1.015 0.086 1.999-0.11 2.95-0.586z" fill="#f5f1f0" data-fill-palette-color="accent"></path><path d="M115.792 22.326l-3.02 0.257-1.209-14.238-3.796 0.322-0.213-2.507 3.887-0.33-0.475-5.589 2.84-0.241 0.474 5.589 4.159-0.354 0.213 2.508-4.068 0.345z" fill="#f5f1f0" data-fill-palette-color="accent"></path><path d="M150.837 26.673v0c-1.479-0.413-2.725-1.163-3.736-2.25-1.018-1.089-1.714-2.364-2.09-3.826-0.375-1.462-0.349-2.958 0.079-4.49v0c0.426-1.525 1.178-2.815 2.256-3.871 1.078-1.056 2.335-1.786 3.77-2.189 1.43-0.412 2.885-0.411 4.364 0.002v0c1.11 0.31 2.1 0.81 2.97 1.501 0.864 0.689 1.553 1.504 2.066 2.444v0l0.596-2.131 2.696 0.753-4.521 16.186-2.696-0.753 0.595-2.132c-0.921 0.519-1.931 0.853-3.029 1.001-1.104 0.146-2.211 0.064-3.32-0.245zM151.946 24.129v0c1.025 0.286 2.028 0.29 3.008 0.011 0.98-0.279 1.836-0.774 2.567-1.487 0.739-0.717 1.254-1.598 1.546-2.642v0c0.29-1.038 0.305-2.055 0.044-3.052-0.254-0.994-0.728-1.865-1.422-2.611-0.694-0.746-1.553-1.263-2.578-1.549v0c-1.025-0.286-2.028-0.29-3.009-0.011-0.974 0.281-1.83 0.779-2.568 1.496-0.732 0.719-1.244 1.597-1.534 2.636v0c-0.292 1.045-0.311 2.064-0.057 3.058 0.262 0.99 0.737 1.857 1.425 2.601 0.694 0.746 1.553 1.263 2.578 1.55z" fill="#f5f1f0" data-fill-palette-color="accent"></path><path d="M184.674 43.255l-2.474-1.753 15.549-21.94 2.473 1.753z" fill="#f5f1f0" data-fill-palette-color="accent"></path><path d="M205.209 64.58l-1.854-2.398 13.294-10.28 1.855 2.398zM219.975 51.246v0c-0.342-0.442-0.48-0.94-0.414-1.494 0.07-0.548 0.326-0.993 0.768-1.335v0c0.458-0.354 0.959-0.495 1.502-0.42 0.547 0.08 0.991 0.341 1.334 0.783v0c0.354 0.458 0.497 0.957 0.428 1.495-0.073 0.533-0.339 0.977-0.797 1.332v0c-0.442 0.342-0.933 0.483-1.474 0.424-0.544-0.065-0.993-0.326-1.347-0.785z" fill="#f5f1f0" data-fill-palette-color="accent"></path><path d="M218.667 92.087v0c-0.285-0.814-0.435-1.736-0.452-2.764-0.013-1.037 0.223-2.016 0.708-2.935v0l3.406-0.301c-0.66 0.787-1.096 1.653-1.308 2.598-0.212 0.945-0.165 1.856 0.142 2.733v0c0.296 0.846 0.725 1.41 1.287 1.692 0.56 0.275 1.139 0.308 1.737 0.099v0c0.687-0.24 1.111-0.638 1.274-1.195 0.16-0.563 0.243-1.041 0.247-1.435v0l0.07-2.433c0.023-0.444 0.092-0.992 0.207-1.646 0.12-0.656 0.399-1.288 0.835-1.898 0.445-0.605 1.132-1.07 2.061-1.394v0c0.852-0.298 1.698-0.369 2.537-0.213 0.848 0.16 1.609 0.54 2.283 1.14 0.678 0.591 1.192 1.389 1.543 2.394v0c0.278 0.795 0.425 1.675 0.441 2.64 0.02 0.956-0.198 1.853-0.655 2.691v0l-3.405 0.302c0.627-0.697 1.043-1.488 1.247-2.374 0.213-0.881 0.184-1.709-0.087-2.485v0c-0.253-0.725-0.656-1.223-1.208-1.494-0.552-0.271-1.091-0.314-1.619-0.13v0c-0.426 0.149-0.756 0.421-0.988 0.816-0.239 0.398-0.365 0.916-0.377 1.556v0l-0.07 2.433c-0.004 0.437-0.065 0.997-0.184 1.681-0.118 0.684-0.399 1.349-0.843 1.997-0.449 0.656-1.182 1.162-2.2 1.518v0c-1.431 0.5-2.763 0.405-3.996-0.285-1.227-0.692-2.104-1.794-2.633-3.308z" fill="#f5f1f0" data-fill-palette-color="accent"></path><path d="M10.24 166.682v0c-0.543-1.602-0.654-3.189-0.334-4.763 0.32-1.574 0.995-2.973 2.024-4.197 1.029-1.224 2.329-2.102 3.898-2.634v0c1.57-0.532 3.138-0.626 4.706-0.282 1.561 0.346 2.947 1.046 4.159 2.101 1.211 1.055 2.088 2.383 2.631 3.984v0c0.402 1.187 0.569 2.372 0.5 3.555-0.066 1.189-0.311 2.293-0.734 3.311v0l-4.031 0.353c0.759-0.762 1.291-1.711 1.596-2.846 0.307-1.129 0.263-2.277-0.132-3.444v0c-0.359-1.059-0.944-1.935-1.755-2.628-0.817-0.69-1.746-1.144-2.787-1.36-1.041-0.216-2.091-0.145-3.15 0.214v0c-1.04 0.352-1.911 0.932-2.612 1.739-0.701 0.807-1.166 1.733-1.395 2.777-0.223 1.043-0.155 2.094 0.204 3.153v0c0.396 1.168 1.049 2.109 1.96 2.825 0.913 0.722 1.922 1.148 3.027 1.279v0l-3.415 2.171c-0.961-0.549-1.83-1.275-2.606-2.179-0.767-0.899-1.352-1.943-1.754-3.129z" fill="#f5f1f0" data-fill-palette-color="accent"></path><path d="M30.181 200.905l-2.015-2.385 21.206-17.915 2.016 2.386-9.828 8.301c1.111-0.083 2.163 0.086 3.156 0.51 0.987 0.427 1.835 1.06 2.543 1.899v0c0.796 0.942 1.301 2.01 1.516 3.204 0.215 1.194 0.096 2.41-0.357 3.649-0.454 1.248-1.306 2.4-2.557 3.456v0l-7.619 6.437-2.015-2.386 7.287-6.156c1.045-0.883 1.703-1.977 1.976-3.283 0.277-1.301-0.065-2.52-1.026-3.657v0c-0.783-0.926-1.817-1.472-3.104-1.638-1.282-0.16-2.556 0.294-3.822 1.363v0z" fill="#f5f1f0" data-fill-palette-color="accent"></path><path d="M70.445 232.829v0c-1.417-0.705-2.533-1.708-3.346-3.008-0.819-1.303-1.278-2.732-1.377-4.287-0.093-1.551 0.225-3.06 0.954-4.525v0c0.732-1.472 1.746-2.638 3.04-3.499 1.3-0.858 2.717-1.353 4.249-1.486 1.527-0.135 3 0.15 4.418 0.855v0c1.068 0.531 1.973 1.23 2.715 2.096 0.743 0.866 1.285 1.825 1.628 2.876v0l1.017-2.045 2.588 1.288-7.731 15.534-2.587-1.288 1.017-2.044c-1.036 0.342-2.126 0.485-3.271 0.426-1.142-0.064-2.247-0.362-3.314-0.893zM72.072 230.467v0c0.983 0.489 1.997 0.689 3.042 0.6 1.048-0.095 2.015-0.435 2.9-1.018 0.882-0.577 1.572-1.366 2.07-2.368v0c0.498-1.001 0.713-2.031 0.645-3.088-0.068-1.057-0.38-2.033-0.937-2.926-0.559-0.888-1.33-1.576-2.313-2.066v0c-0.983-0.489-1.997-0.689-3.042-0.6-1.048 0.095-2.015 0.435-2.9 1.018-0.879 0.586-1.567 1.38-2.065 2.381v0c-0.498 1.001-0.715 2.026-0.65 3.074 0.068 1.057 0.38 2.033 0.936 2.927 0.559 0.888 1.33 1.576 2.314 2.066z" fill="#f5f1f0" data-fill-palette-color="accent"></path><path d="M114.809 244.431l-3.112-0.253 1.198-14.696-3.918-0.319 0.212-2.599 4.009 0.327 0.469-5.761 2.931 0.239-0.469 5.761 4.3 0.351-0.212 2.598-4.21-0.343z" fill="#f5f1f0" data-fill-palette-color="accent"></path><path d="M155.896 239.81v0c-1.524 0.43-3.023 0.437-4.499 0.02-1.482-0.415-2.782-1.164-3.9-2.249-1.112-1.086-1.89-2.417-2.334-3.992v0c-0.447-1.582-0.48-3.127-0.1-4.634 0.386-1.509 1.103-2.828 2.149-3.956 1.04-1.127 2.322-1.905 3.845-2.335v0c1.148-0.324 2.288-0.415 3.42-0.272 1.132 0.142 2.178 0.488 3.138 1.036v0l-0.62-2.198 2.781-0.785 4.713 16.699-2.781 0.785-0.621-2.198c-0.537 0.95-1.249 1.788-2.136 2.514-0.889 0.72-1.907 1.242-3.055 1.565zM155.514 236.967v0c1.057-0.298 1.942-0.832 2.657-1.6 0.712-0.775 1.2-1.676 1.463-2.702 0.265-1.02 0.246-2.068-0.058-3.144v0c-0.304-1.076-0.836-1.983-1.597-2.721-0.761-0.737-1.648-1.25-2.66-1.538-1.011-0.282-2.044-0.274-3.101 0.025v0c-1.057 0.298-1.942 0.832-2.657 1.6-0.712 0.775-1.2 1.676-1.463 2.702-0.257 1.025-0.233 2.075 0.07 3.151v0c0.304 1.076 0.832 1.981 1.585 2.714 0.761 0.737 1.648 1.25 2.66 1.538 1.011 0.282 2.044 0.274 3.101-0.025z" fill="#f5f1f0" data-fill-palette-color="accent"></path><path d="M194.819 220.196l-2.545 1.81-16.089-22.622 2.545-1.81z" fill="#f5f1f0" data-fill-palette-color="accent"></path><path d="M218.731 195.574l-1.912 2.469-13.718-10.625 1.912-2.469zM201.586 184.275v0c-0.355 0.458-0.816 0.723-1.383 0.795-0.567 0.072-1.08-0.069-1.538-0.424v0c-0.474-0.367-0.742-0.83-0.803-1.389-0.067-0.563 0.077-1.073 0.432-1.531v0c0.367-0.474 0.83-0.746 1.387-0.818 0.548-0.07 1.059 0.079 1.534 0.447v0c0.458 0.355 0.727 0.81 0.807 1.366 0.076 0.562-0.069 1.08-0.436 1.554z" fill="#f5f1f0" data-fill-palette-color="accent"></path><path d="M235.339 163.732v0c-0.293 0.832-0.768 1.672-1.424 2.52-0.654 0.841-1.474 1.477-2.462 1.907v0l-2.932-1.954c1.037-0.206 1.944-0.622 2.722-1.249 0.784-0.624 1.336-1.39 1.656-2.298v0c0.309-0.877 0.327-1.606 0.053-2.189-0.271-0.588-0.718-0.992-1.341-1.211v0c-0.705-0.249-1.305-0.199-1.798 0.148-0.488 0.35-0.859 0.683-1.114 1.001v0l-1.627 1.912c-0.306 0.342-0.718 0.74-1.235 1.193-0.515 0.447-1.145 0.775-1.89 0.985-0.751 0.207-1.607 0.141-2.566-0.198v0c-0.877-0.309-1.604-0.801-2.18-1.475-0.583-0.677-0.953-1.472-1.11-2.384-0.157-0.913-0.053-1.887 0.312-2.922v0c0.289-0.82 0.736-1.623 1.342-2.41 0.599-0.789 1.355-1.373 2.267-1.751v0l2.932 1.955c-0.955 0.156-1.799 0.523-2.531 1.101-0.741 0.582-1.252 1.273-1.534 2.074v0c-0.262 0.743-0.258 1.402 0.011 1.975 0.269 0.574 0.677 0.957 1.224 1.149v0c0.432 0.152 0.873 0.147 1.323-0.016 0.446-0.171 0.88-0.511 1.303-1.019v0l1.627-1.913c0.287-0.349 0.697-0.762 1.229-1.238 0.539-0.474 1.196-0.829 1.971-1.063 0.778-0.24 1.694-0.175 2.749 0.197v0c1.474 0.519 2.484 1.454 3.03 2.804 0.546 1.35 0.543 2.806-0.007 4.369z" fill="#f5f1f0" data-fill-palette-color="accent"></path><path d="M1.461 124.859c0-5.673 4.599-10.272 10.273-10.272 5.673 0 10.272 4.599 10.272 10.272 0 5.673-4.599 10.272-10.272 10.272-5.673 0-10.272-4.599-10.273-10.272z" fill="#f5f1f0" data-fill-palette-color="accent"></path><path d="M222.425 124.859c0-5.673 4.599-10.272 10.273-10.272 5.673 0 10.272 4.599 10.272 10.272 0 5.673-4.599 10.272-10.272 10.272-5.673 0-10.272-4.599-10.273-10.272z" fill="#f5f1f0" data-fill-palette-color="accent"></path></g><g id="text-1"></g></svg></g></svg></g></svg></g><defs></defs></svg><rect width="395.52" height="139.60200552162252" fill="none" stroke="none" visibility="hidden"></rect></g></svg></g></svg>