<svg width="106" height="106" viewBox="0 0 106 106" fill="none" xmlns="http://www.w3.org/2000/svg">
<circle cx="53" cy="53" r="53" fill="url(#paint0_linear_2105_14)"/>
<g filter="url(#filter0_d_2105_14)">
<path d="M25.0605 45.7812H26.9355V55.4004C26.9355 56.4681 26.6979 57.3568 26.2227 58.0664C25.7474 58.776 25.1159 59.3099 24.3281 59.668C23.5469 60.0195 22.6973 60.1953 21.7793 60.1953C20.8158 60.1953 19.9434 60.0195 19.1621 59.668C18.3874 59.3099 17.7721 58.776 17.3164 58.0664C16.8672 57.3568 16.6426 56.4681 16.6426 55.4004V45.7812H18.5078V55.4004C18.5078 56.1426 18.6445 56.7546 18.918 57.2363C19.1914 57.7181 19.5723 58.0762 20.0605 58.3105C20.5553 58.5449 21.1283 58.6621 21.7793 58.6621C22.4368 58.6621 23.0098 58.5449 23.498 58.3105C23.9928 58.0762 24.377 57.7181 24.6504 57.2363C24.9238 56.7546 25.0605 56.1426 25.0605 55.4004V45.7812ZM35.1387 54.4238H31.3398V52.8906H35.1387C35.8743 52.8906 36.4701 52.7734 36.9258 52.5391C37.3815 52.3047 37.7135 51.9792 37.9219 51.5625C38.1367 51.1458 38.2441 50.6706 38.2441 50.1367C38.2441 49.6484 38.1367 49.1895 37.9219 48.7598C37.7135 48.3301 37.3815 47.985 36.9258 47.7246C36.4701 47.4577 35.8743 47.3242 35.1387 47.3242H31.7793V60H29.8945V45.7812H35.1387C36.2129 45.7812 37.1211 45.9668 37.8633 46.3379C38.6055 46.709 39.1686 47.2233 39.5527 47.8809C39.9368 48.5319 40.1289 49.2773 40.1289 50.1172C40.1289 51.0286 39.9368 51.8066 39.5527 52.4512C39.1686 53.0957 38.6055 53.5872 37.8633 53.9258C37.1211 54.2578 36.2129 54.4238 35.1387 54.4238ZM51.1348 58.4668V60H44.0254V58.4668H51.1348ZM44.3965 45.7812V60H42.5117V45.7812H44.3965ZM63.5957 52.4414V53.3398C63.5957 54.4076 63.4622 55.3646 63.1953 56.2109C62.9284 57.0573 62.5443 57.7767 62.043 58.3691C61.5417 58.9616 60.9395 59.4141 60.2363 59.7266C59.5397 60.0391 58.7585 60.1953 57.8926 60.1953C57.0527 60.1953 56.2812 60.0391 55.5781 59.7266C54.8815 59.4141 54.276 58.9616 53.7617 58.3691C53.2539 57.7767 52.86 57.0573 52.5801 56.2109C52.3001 55.3646 52.1602 54.4076 52.1602 53.3398V52.4414C52.1602 51.3737 52.2969 50.4199 52.5703 49.5801C52.8503 48.7337 53.2441 48.0143 53.752 47.4219C54.2598 46.8229 54.862 46.3672 55.5586 46.0547C56.2617 45.7422 57.0332 45.5859 57.873 45.5859C58.7389 45.5859 59.5202 45.7422 60.2168 46.0547C60.9199 46.3672 61.5221 46.8229 62.0234 47.4219C62.5312 48.0143 62.9186 48.7337 63.1855 49.5801C63.459 50.4199 63.5957 51.3737 63.5957 52.4414ZM61.7305 53.3398V52.4219C61.7305 51.5755 61.6426 50.8268 61.4668 50.1758C61.2975 49.5247 61.0469 48.9779 60.7148 48.5352C60.3828 48.0924 59.9759 47.7572 59.4941 47.5293C59.0189 47.3014 58.4785 47.1875 57.873 47.1875C57.2871 47.1875 56.7565 47.3014 56.2812 47.5293C55.8125 47.7572 55.4089 48.0924 55.0703 48.5352C54.7383 48.9779 54.4811 49.5247 54.2988 50.1758C54.1165 50.8268 54.0254 51.5755 54.0254 52.4219V53.3398C54.0254 54.1927 54.1165 54.9479 54.2988 55.6055C54.4811 56.2565 54.7415 56.8066 55.0801 57.2559C55.4251 57.6986 55.832 58.0339 56.3008 58.2617C56.776 58.4896 57.3066 58.6035 57.8926 58.6035C58.5046 58.6035 59.0482 58.4896 59.5234 58.2617C59.9987 58.0339 60.3991 57.6986 60.7246 57.2559C61.0566 56.8066 61.3073 56.2565 61.4766 55.6055C61.6458 54.9479 61.7305 54.1927 61.7305 53.3398ZM71.4668 47.041L66.7598 60H64.8359L70.2559 45.7812H71.4961L71.4668 47.041ZM75.4121 60L70.6953 47.041L70.666 45.7812H71.9062L77.3457 60H75.4121ZM75.168 54.7363V56.2793H67.1797V54.7363H75.168ZM83.0977 60H80.1289L80.1484 58.4668H83.0977C84.1133 58.4668 84.9596 58.2552 85.6367 57.832C86.3138 57.4023 86.8216 56.8034 87.1602 56.0352C87.5052 55.2604 87.6777 54.3555 87.6777 53.3203V52.4512C87.6777 51.6374 87.5801 50.9147 87.3848 50.2832C87.1895 49.6452 86.903 49.1081 86.5254 48.6719C86.1478 48.2292 85.6855 47.8939 85.1387 47.666C84.5983 47.4382 83.9766 47.3242 83.2734 47.3242H80.0703V45.7812H83.2734C84.2044 45.7812 85.054 45.9375 85.8223 46.25C86.5905 46.556 87.2513 47.002 87.8047 47.5879C88.3646 48.1673 88.7943 48.8704 89.0938 49.6973C89.3932 50.5176 89.543 51.4421 89.543 52.4707V53.3203C89.543 54.349 89.3932 55.2767 89.0938 56.1035C88.7943 56.9238 88.3613 57.6237 87.7949 58.2031C87.235 58.7826 86.5579 59.2285 85.7637 59.541C84.9759 59.847 84.0872 60 83.0977 60ZM81.1348 45.7812V60H79.25V45.7812H81.1348Z" fill="white"/>
</g>
<defs>
<filter id="filter0_d_2105_14" x="12.6426" y="45.5859" width="80.9004" height="22.6094" filterUnits="userSpaceOnUse" color-interpolation-filters="sRGB">
<feFlood flood-opacity="0" result="BackgroundImageFix"/>
<feColorMatrix in="SourceAlpha" type="matrix" values="0 0 0 0 0 0 0 0 0 0 0 0 0 0 0 0 0 0 127 0" result="hardAlpha"/>
<feOffset dy="4"/>
<feGaussianBlur stdDeviation="2"/>
<feComposite in2="hardAlpha" operator="out"/>
<feColorMatrix type="matrix" values="0 0 0 0 0 0 0 0 0 0 0 0 0 0 0 0 0 0 0.25 0"/>
<feBlend mode="normal" in2="BackgroundImageFix" result="effect1_dropShadow_2105_14"/>
<feBlend mode="normal" in="SourceGraphic" in2="effect1_dropShadow_2105_14" result="shape"/>
</filter>
<linearGradient id="paint0_linear_2105_14" x1="53" y1="0" x2="53" y2="106" gradientUnits="userSpaceOnUse">
<stop offset="0.5" stop-color="#D9D9D9"/>
<stop offset="0.5" stop-color="#A3A3A3"/>
</linearGradient>
</defs>
</svg>
